PathFileType	4	(X/Y/Z)	Patient4_TMGait_0pt3_01_right_14.trc.trc
DataRate	CameraRate	NumFrames	NumMarkers	Units	OrigDataRate	OrigDataStartFrame	OrigNumFrames
53.231939163498	53.231939163498	4	33	mm	53.231939163498	106	       141
Frame#	Time	Sacral			L.Shoulder			Chest			R.Shoulder			Neck			R.ASIS			L.ASIS			R.Thigh.Superior			R.Thigh.Lateral			R.Thigh.Inferior			R.Patella			L.Thigh.Superior			L.Thigh.Lateral			L.Thigh.Inferior			L.Patella			L.Shank.Superior			L.Shank.Lateral			L.Shank.Inferior			R.Shank.Superior			R.Shank.Lateral			R.Shank.Inferior			R.Heel			R.Midfoot.Superior			R.Midfoot.Lateral			R.Toe			L.Heel			L.Midfoot.Lateral			L.Midfoot.Superior			L.Toe			L.Elbow			L.Wrist			R.Elbow			R.Wrist			
		X1	Y1	Z1	X2	Y2	Z2	X3	Y3	Z3	X4	Y4	Z4	X5	Y5	Z5	X6	Y6	Z6	X7	Y7	Z7	X8	Y8	Z8	X9	Y9	Z9	X10	Y10	Z10	X11	Y11	Z11	X12	Y12	Z12	X13	Y13	Z13	X14	Y14	Z14	X15	Y15	Z15	X16	Y16	Z16	X17	Y17	Z17	X18	Y18	Z18	X19	Y19	Z19	X20	Y20	Z20	X21	Y21	Z21	X22	Y22	Z22	X23	Y23	Z23	X24	Y24	Z24	X25	Y25	Z25	X26	Y26	Z26	X27	Y27	Z27	X28	Y28	Z28	X29	Y29	Z29	X30	Y30	Z30	X31	Y31	Z31	X32	Y32	Z32	X33	Y33	Z33	

106	27.002500000000	735.315450819253	978.009649493482	422.040990614575	922.461727404655	1414.764914457754	253.216489606150	1007.376903509210	1348.461250298522	425.328111346596	903.135302667635	1418.540671074391	588.761481408811	892.290289866260	1477.611215399989	409.317981225681	959.167669461383	930.544084400226	557.253329965659	966.138127836742	943.288165193906	282.363941388163	1047.806216737422	757.337200633115	535.809102520019	1004.299821148694	639.014174973624	610.117837292484	1097.013705230624	597.893839102923	534.607525205510	1115.331641907102	486.996202467806	565.267128339987	1027.151537545810	736.495053691327	333.438260519223	954.208634662336	607.567465357747	280.431958389457	1036.158718454691	540.615363024305	360.254686118583	1038.991010204373	464.877840299812	374.096908329682	993.945377950142	391.050224612733	367.562224898169	889.191530029924	293.418770014843	310.921215531382	904.365900213811	179.441100682093	390.261554094368	1039.312812907067	412.625706863447	575.688955190323	912.578555650159	373.145261999732	624.221432845054	910.868315608605	258.510558803211	588.025825883278	719.418947962475	176.913878149701	538.958057500353	882.609184986945	144.362003127164	615.932500901180	769.241478524768	138.674597020593	630.711516869946	948.990571624565	45.670554194599	672.723548947497	747.799331344592	39.577239839677	421.535129127906	827.050465359124	36.727368205864	346.345065138016	909.993958174475	94.665515446715	379.860137954796	1038.841304062444	39.807265179492	357.522527969217	1019.209711003867	1085.145715557718	118.289697579841	1222.240453204737	920.971156963001	135.804262095632	878.193357851020	1064.381695287902	698.378208923653	995.872143566600	831.888917661610	704.330566129805	
107	27.021285714286	734.455600989052	978.336162169200	419.564013543701	924.035373812063	1416.140176818764	254.525639892648	1006.274900312470	1348.947468692432	427.566694561628	899.401236745322	1417.874766977969	589.841872215604	891.470793474592	1478.114812652525	410.655102412514	957.181451334422	931.350500377446	557.152946106047	966.611082745363	943.853315194653	282.241359431473	1047.568137589560	760.139202936323	535.526134733909	1005.834956821342	641.609194035484	610.311637479154	1098.993610524813	601.675516898410	534.830371089556	1119.979728171944	492.209803372439	565.776590030112	1025.465888379213	735.742553302686	333.383331940202	951.489770277141	607.375904966234	280.006741403097	1032.158372520547	539.815285415767	360.336002814759	1034.296145541754	464.242731992545	374.280368763319	988.997457054674	390.644752774344	367.558357019931	884.243231817644	293.218748063138	310.741177796178	898.893950934756	179.264977469033	390.213980858156	1047.242766240697	415.638224233905	576.687336912534	923.052709443773	370.476439477685	625.829000733746	926.818911498199	255.921047567786	589.865212208433	739.921639862666	164.059228335743	541.929989207474	904.694860873025	141.452527820503	618.136099248265	792.182334228347	129.108519549002	633.467346151255	976.794820950154	47.206476516911	674.528473285169	742.122452812724	39.598856628709	421.455950085180	821.380226643505	36.709887738846	346.298618268422	904.326258864348	94.620743581515	379.827670942842	1033.171376508179	39.772240316623	357.481901558108	1025.531507232328	1088.798969321316	118.663813408546	1235.759942275545	933.897874536222	138.884301501988	858.880936079503	1065.167997586820	697.374859846787	956.861776780085	823.186225383434	706.452128889378	
108	27.040071428571	733.697031125033	979.443215237626	417.342718111191	925.873196317954	1418.052259485990	256.072295439146	1005.369597654160	1349.983731303327	430.018192282277	895.936504861612	1418.005568839229	591.003087129817	890.881237777705	1479.202419451757	412.144073151681	955.142269948700	932.687861161670	557.419797359411	967.134168772834	944.968660359201	282.529736873446	1046.668153379905	763.023076153300	535.574432068955	1006.303451065591	644.388020214282	610.787725101482	1099.684936552251	605.369312365689	535.282314064300	1123.219472044449	497.675238798655	566.464112178721	1023.259053239494	735.257206826381	333.641788077400	947.932502822285	607.710748482157	279.663006939625	1027.053363917704	539.309558349666	360.439160737944	1028.351846925400	464.030362730198	374.419311256390	983.039149891769	390.711079975053	367.481671936004	878.594817260455	293.208251596019	310.468066240513	893.071060501434	179.331259413007	390.109888999790	1054.297168334721	418.901270681683	577.944125799821	933.436374022785	367.390484500015	628.038659961607	943.342729757697	253.207914108697	592.216707029047	762.079808785537	150.248882071744	545.773637942594	928.217995136905	138.381949021091	620.877107164678	817.005938493819	118.911293726850	636.942302240343	1006.356622910384	49.194145906281	676.650018881573	736.423692279817	39.609963323173	421.350619592254	815.685953500745	36.681253356840	346.239788567403	898.623869755672	94.606198164494	379.757983671972	1027.477487682805	39.776208877647	357.456376098465	1031.653767569998	1093.055479931515	119.118128041704	1248.619102648653	947.860288962490	142.346788582686	839.693482992815	1067.616230197991	696.310013364958	918.635634716233	818.411131453759	708.097009478390	
109	27.058857142857	733.026506587504	981.207401196536	415.403461349492	927.942613607791	1420.378628948532	257.830996051629	1004.644586377967	1351.474655554563	432.659918819974	892.742829416998	1418.854956435520	592.231045854465	890.510612911566	1480.777398819738	413.748578988079	953.046957317508	934.461389381165	558.065027794667	967.687707985803	946.538942937780	283.240410151490	1045.150275485182	765.889974443284	535.980059273680	1005.752575235734	647.218876997329	611.550285826131	1099.173244247913	608.853046658027	535.991173193809	1125.094701342161	503.226396596850	567.328036747982	1020.571026892358	735.001980518785	334.204680492408	943.632069694542	608.518826387051	279.393692317778	1020.982604406556	539.074991432487	360.542588095813	1021.318206271392	464.197878676260	374.489573313431	976.209167862468	391.200849013729	367.323722545680	872.336953926831	293.372256493545	310.105464528334	886.948636806589	179.615768157142	389.949306419567	1060.427838606051	422.339796907833	579.395828704734	943.664837524150	364.040859368258	630.749629532485	960.169631161755	250.596070358891	594.926395613664	785.539823810551	136.171412040446	550.275427594274	952.727402364369	135.412610762773	623.920419277313	843.285603026134	108.593297825378	640.873526133533	1036.993310246641	51.722248138951	678.760727049921	730.706574950777	39.616750168686	421.222370188484	809.971830603909	36.643958273824	346.172364435014	892.894853671756	94.618741595117	379.654472983974	1021.764142148720	39.806725659925	357.446459898626	1037.627262737329	1097.802893501447	119.651078608652	1260.787606080028	962.702009411801	146.158020230233	820.854374169774	1071.606388923234	695.180857355447	881.821830150414	817.209672909468	709.260203606052	
